<?xml version="1.0" standalone="no"?>
<!DOCTYPE svg PUBLIC "-//W3C//DTD SVG 20010904//EN"
 "http://www.w3.org/TR/2001/REC-SVG-20010904/DTD/svg10.dtd">
<svg version="1.0" xmlns="http://www.w3.org/2000/svg"
 width="600.000000pt" height="600.000000pt" viewBox="0 0 600.000000 600.000000"
 preserveAspectRatio="xMidYMid meet">
<metadata>
Created by potrace 1.14, written by Peter Selinger 2001-2017
</metadata>
<g transform="translate(0.000000,600.000000) scale(0.100000,-0.100000)"
fill="#000000" stroke="none">
<path d="M0 3000 l0 -3000 3000 0 3000 0 0 3000 0 3000 -3000 0 -3000 0 0
-3000z m2941 2114 c13 -14 58 -93 99 -177 48 -97 85 -158 102 -171 l27 -19 62
28 c96 43 119 15 127 -154 8 -172 -18 -389 -94 -799 -25 -134 -44 -248 -42
-253 2 -6 35 49 73 122 68 129 201 339 247 389 45 49 80 70 117 70 61 1 109
31 321 201 228 183 318 244 383 264 39 12 48 11 67 -2 19 -14 22 -22 17 -62
-3 -25 -28 -108 -56 -183 -30 -82 -51 -154 -51 -179 0 -40 0 -40 65 -70 36
-16 68 -36 72 -45 13 -34 -34 -101 -152 -219 -122 -123 -280 -247 -612 -484
-95 -68 -173 -125 -173 -127 0 -2 6 -2 13 1 327 106 442 135 574 142 l102 6
40 -35 c48 -45 80 -52 348 -78 307 -30 399 -47 465 -83 85 -47 52 -89 -147
-189 -204 -102 -219 -119 -179 -201 15 -30 24 -62 21 -70 -34 -90 -374 -85
-954 14 -128 21 -245 39 -260 39 -20 0 14 -22 123 -79 239 -124 393 -232 430
-302 8 -16 14 -44 14 -64 0 -53 25 -93 170 -275 159 -198 209 -268 250 -344
48 -93 37 -146 -31 -146 -12 0 -98 26 -191 57 -205 69 -208 69 -255 -30 -39
-81 -53 -84 -132 -31 -123 83 -274 262 -552 657 -89 126 -163 227 -164 225 -2
-2 16 -70 41 -152 67 -225 106 -446 90 -509 -3 -14 -21 -43 -40 -66 -43 -51
-49 -78 -86 -383 -42 -337 -74 -455 -132 -474 -34 -10 -67 34 -148 198 -48 98
-85 159 -102 172 l-27 19 -62 -28 c-96 -43 -119 -15 -127 154 -8 172 18 389
94 799 25 134 44 248 41 255 -2 6 -33 -45 -68 -114 -99 -189 -187 -325 -259
-401 -59 -62 -69 -68 -105 -68 -73 -1 -105 -21 -401 -261 -221 -178 -327 -235
-374 -202 -19 14 -22 22 -17 62 3 25 29 108 57 185 64 175 65 212 5 239 -101
44 -107 53 -81 109 56 117 283 312 754 647 95 68 171 125 169 127 -2 2 -50
-12 -108 -32 -186 -63 -366 -105 -474 -111 l-100 -6 -42 36 c-53 44 -85 51
-350 77 -207 20 -344 40 -415 60 -42 12 -98 55 -98 75 0 29 65 75 197 140 199
97 218 117 177 196 -44 88 -23 112 120 130 145 19 410 -5 849 -77 120 -19 222
-34 228 -32 6 2 -54 38 -133 79 -242 128 -388 232 -424 300 -8 16 -14 44 -14
64 0 60 -14 81 -234 356 -185 232 -250 359 -201 396 30 21 59 16 237 -44 213
-72 211 -72 265 52 24 53 52 56 118 13 121 -79 274 -261 556 -661 89 -126 163
-227 164 -225 2 2 -16 70 -41 152 -59 199 -86 333 -88 442 l-1 91 36 40 c45
50 52 78 84 348 30 248 49 360 75 428 34 89 67 107 111 61z"/>
</g>
</svg>
