<svg width="7" height="20" viewBox="0 0 7 20" fill="none" xmlns="http://www.w3.org/2000/svg">
<path fill='white' d="M1,0.311 c-0.003,-0.006,-0.006,0.01,-0.009,0.002 c-0.003,-0.007,-0.005,-0.015,-0.008,-0.015 c-0.006,-0.01,-0.012,0.016,-0.017,-0.011 c-0.002,-0.005,-0.004,0.008,-0.006,0.002 c-0.002,-0.005,-0.004,0.008,-0.006,0.008 c-0.007,-0.021,-0.015,-0.03,-0.023,-0.03 c-0.003,-0.005,-0.005,-0.016,-0.008,-0.028 c-0.003,-0.008,-0.006,-0.019,-0.009,-0.031 c-0.003,-0.003,-0.007,0.004,-0.011,-0.002 c-0.005,-0.004,-0.01,-0.008,-0.015,-0.025 c-0.003,-0.003,-0.006,0.003,-0.008,-0.007 c-0.002,-0.013,-0.005,-0.011,-0.007,-0.014 c-0.002,-0.019,-0.006,-0.022,-0.009,-0.019 c-0.005,-0.011,-0.009,-0.018,-0.014,-0.014 c-0.001,0.006,-0.003,-0.002,-0.005,0 c-0.002,0.008,-0.004,0,-0.006,-0.004 c-0.004,0.005,-0.006,-0.008,-0.009,-0.015 c-0.002,0.004,-0.005,-0.006,-0.007,0 c-0.002,0.003,-0.004,-0.01,-0.006,-0.004 c-0.009,-0.007,-0.017,-0.009,-0.026,-0.013 c-0.003,-0.002,-0.007,-0.007,-0.011,-0.013 c-0.001,-0.008,-0.001,-0.021,-0.002,-0.028 c-0.001,-0.004,-0.001,-0.006,-0.002,0.001 c-0.002,0.019,-0.006,0.01,-0.009,0.003 c-0.001,0,-0.003,0.02,-0.005,0.004 c-0.003,-0.014,-0.007,-0.005,-0.01,-0.012 c-0.003,-0.001,-0.005,-0.01,-0.007,-0.02 c-0.002,-0.02,-0.005,-0.025,-0.008,-0.009 c-0.001,0.013,-0.009,0.018,-0.011,0.014 c-0.004,-0.007,-0.008,0.003,-0.011,-0.012 c-0.006,0.018,-0.011,0.008,-0.017,0.013 c-0.003,-0.001,-0.007,0.004,-0.009,-0.017 c0,-0.005,-0.001,-0.015,-0.002,-0.011 c-0.001,0.012,-0.003,0.019,-0.005,0.012 c-0.001,0.001,-0.001,0.008,-0.002,0.007 c-0.007,0.016,-0.015,-0.008,-0.022,0.009 c-0.004,-0.001,-0.008,0.002,-0.012,-0.005 c-0.001,-0.001,-0.001,0.004,-0.001,0.006 c0,0.007,-0.002,0.007,-0.003,0.012 c-0.004,0.003,-0.008,-0.019,-0.012,-0.005 c-0.001,0.006,-0.002,-0.006,-0.003,-0.004 c-0.001,0.001,-0.002,-0.001,-0.002,-0.004 c-0.002,-0.007,-0.004,0.002,-0.005,-0.005 c-0.003,0.015,-0.004,0.011,-0.007,-0.002 c-0.003,0.019,-0.005,-0.006,-0.008,0.006 c-0.004,0.005,-0.003,-0.034,-0.008,-0.017 c-0.003,0.002,-0.005,0.011,-0.008,0.008 c-0.001,0.004,-0.003,0.012,-0.004,0.004 c-0.003,0.015,-0.006,0.01,-0.01,0.015 c-0.008,0.011,-0.017,-0.001,-0.026,0.005 c-0.001,-0.002,-0.001,-0.013,-0.003,-0.014 c-0.002,0,-0.004,0,-0.007,0.001 c-0.003,0.004,-0.007,0.007,-0.009,0.013 c-0.001,0.008,-0.002,0.003,-0.003,0.008 c-0.001,0.014,-0.003,0.003,-0.005,0.004 c-0.002,0.006,-0.003,0.031,-0.006,0.023 c-0.008,-0.009,-0.006,0.011,-0.013,-0.025 c-0.004,0.017,-0.009,0.011,-0.013,0.023 c-0.001,0,-0.002,-0.003,-0.003,0.006 c-0.002,0.005,-0.004,0.005,-0.006,0.003 c-0.002,0.005,-0.004,-0.002,-0.006,0.001 c-0.002,0.01,-0.005,-0.002,-0.007,0.002 c-0.002,0.001,-0.004,-0.007,-0.006,-0.004 c-0.001,0.005,-0.002,0.006,-0.003,0.001 c-0.004,-0.026,-0.009,-0.003,-0.013,-0.006 c-0.005,0.001,-0.008,0.039,-0.012,0.044 c-0.003,0.003,-0.005,-0.003,-0.008,0.002 c-0.001,-0.01,-0.003,-0.015,-0.005,-0.014 c-0.001,-0.002,-0.002,0.006,-0.003,0.002 c0,-0.001,-0.001,-0.004,-0.001,-0.002 c-0.001,0.008,-0.002,0.013,-0.003,0.013 c-0.002,-0.006,-0.004,0.016,-0.006,0.01 c-0.002,-0.006,-0.003,0.003,-0.005,0.004 c-0.002,0.001,-0.004,-0.009,-0.006,-0.004 c-0.002,0.004,-0.003,0.01,-0.005,0.011 c-0.001,0,-0.002,-0.01,-0.004,-0.005 c-0.003,0.015,-0.005,0,-0.008,0.023 c-0.003,-0.001,-0.007,0.005,-0.01,0.003 c-0.001,-0.005,-0.002,-0.007,-0.004,-0.006 c-0.002,-0.003,-0.004,-0.004,-0.005,0.003 c-0.002,-0.001,-0.003,-0.003,-0.005,-0.006 c-0.001,-0.001,-0.002,0.011,-0.003,0.007 c-0.001,-0.001,-0.001,0.011,-0.002,0.013 c-0.002,0.012,-0.005,0.003,-0.006,0.015 c-0.002,0.004,-0.005,-0.011,-0.007,-0.008 c-0.003,0.006,-0.007,-0.004,-0.01,0.007 c-0.003,-0.008,-0.007,0.004,-0.01,0.003 c-0.004,-0.011,-0.008,0.012,-0.012,0 c-0.003,-0.006,-0.004,0.027,-0.006,0.005 c-0.002,0.029,-0.007,0.015,-0.011,0.027 c-0.004,0.01,-0.006,0.024,-0.011,0.017 c-0.001,0.01,-0.003,-0.005,-0.004,-0.006 c-0.002,0.016,-0.005,0.005,-0.007,0.01 c-0.002,0.006,-0.003,-0.008,-0.004,-0.006 c-0.003,-0.009,-0.005,-0.004,-0.008,0.008 c-0.005,-0.01,-0.009,0.007,-0.013,0.015 c-0.008,-0.01,-0.014,-0.02,-0.022,-0.009 c-0.003,0.018,-0.007,-0.002,-0.01,0.01 c-0.003,0.003,-0.005,-0.013,-0.008,-0.007 c-0.002,0.01,-0.005,0.005,-0.006,0.019 c-0.002,0.008,-0.005,-0.001,-0.007,0.006 c-0.002,0.006,-0.003,-0.018,-0.005,-0.016 c-0.007,0.025,-0.015,0.006,-0.022,-0.002 c-0.001,-0.006,-0.002,0,-0.003,0.002 c-0.001,0.003,-0.002,-0.005,-0.003,-0.003 c-0.001,0,-0.001,0.009,-0.002,0.013 c0,0.001,-0.001,0.004,-0.001,0.006 c-0.003,0.007,-0.004,-0.032,-0.008,-0.02 c-0.005,-0.013,-0.01,0.003,-0.016,-0.006 c-0.003,-0.005,-0.006,-0.003,-0.009,-0.013 c-0.001,-0.009,-0.003,-0.017,-0.005,-0.018 c-0.005,-0.005,-0.012,0.001,-0.014,0.033 c-0.001,0.01,-0.003,-0.004,-0.004,-0.002 c-0.004,-0.005,-0.007,-0.008,-0.011,-0.014 c-0.001,-0.002,-0.001,0.007,-0.002,0.006 c-0.001,-0.008,-0.003,-0.004,-0.004,-0.012 c-0.005,-0.007,-0.009,0.023,-0.014,0.035 c-0.002,0.012,-0.004,0.009,-0.006,0.006 c-0.002,0,-0.004,0.003,-0.006,-0.004 c-0.001,-0.001,-0.003,-0.001,-0.004,0.008 c0,0.004,0,0.007,-0.001,0.008 C0.048,0.319,0.043,0.287,0.039,0.296 c-0.004,0.007,-0.008,0.003,-0.012,-0.005 c-0.001,-0.002,-0.002,-0.012,-0.002,-0.006 c0,0.019,-0.003,0.009,-0.004,0.012 c-0.001,0.001,-0.002,0.011,-0.003,0.01 c-0.006,0.02,-0.012,-0.011,-0.018,0.006 v0.689 h1 V0.311"></path>
</svg>
