<?xml version="1.0" encoding="utf-8"?>
<!-- Generator: Adobe Illustrator 24.0.3, SVG Export Plug-In . SVG Version: 6.00 Build 0)  -->
<svg version="1.1" id="Layer_1" xmlns="http://www.w3.org/2000/svg" xmlns:xlink="http://www.w3.org/1999/xlink" x="0px" y="0px"
	 viewBox="0 0 222 56" style="enable-background:new 0 0 222 56;" xml:space="preserve">
<g>
	<path d="M39.1,27.7c0,11.2-7,17.3-19,17.3C8,45,1,38.9,1,27.7s7-17.2,19.1-17.2C32.1,10.4,39.1,16.4,39.1,27.7z M13,30.8l1.7-12.5
		H8.3l1.6,12.5H13z M14.2,35.2c0-1.6-1.2-2.6-2.6-2.6c-1.5,0-2.6,1-2.6,2.6c0,1.5,1.2,2.6,2.6,2.6C13,37.8,14.2,36.8,14.2,35.2z
		 M21.6,33.3l1.6-18.8h-6.3l1.6,18.8H21.6z M22.6,40.6v-4.7h-5v4.7H22.6z M25.2,38.1h6.6l-3.3-5.6L25.2,38.1z M31.8,18.3h-6.4
		l1.6,12.5h3.1L31.8,18.3z"/>
</g>
<g>
	<path d="M61,32h5.5v4.1H55.9V19.3H61V32z"/>
	<path d="M80.9,23.3h-6.5v2.6h5.8v3.4h-5.8v2.8h6.5v4H69.3V19.3h11.6V23.3z"/>
	<path d="M96.1,23.4h-3.9v12.7H87V23.4h-3.9v-4.1h13V23.4z"/>
	<path d="M111,23.4h-3.9v12.7H102V23.4H98v-4.1h13V23.4z"/>
	<path d="M125.3,23.3h-6.5v2.6h5.8v3.4h-5.8v2.8h6.5v4h-11.6V19.3h11.6V23.3z"/>
	<path d="M137.6,36.1l-2.9-5.2h-1.5v5.2h-5.1V19.3h8.2c3.7,0,6.7,1.7,6.7,5.6c0,2.5-1.2,4.2-3.1,5.2l3.6,6H137.6z M133.2,23.2v4.6h2
		c1.6,0,2.4-0.8,2.4-2.3c0-1.5-0.9-2.3-2.4-2.3H133.2z"/>
	<path d="M153.9,34.7l-3.2-8.7h-0.2l-1.1,10.1h-4.4l1.7-16.8h5.8l2.9,7.9l0.2,0.9h0.1l0.2-0.9l3.1-7.9h5.6l1.7,16.8h-4.8l-1.1-10.2
		h-0.2l-3.2,8.8H153.9z"/>
	<path d="M179.3,36.1l-0.9-3.1h-4.8l-0.9,3.1h-4.8l5.4-16.8h5.8l5.4,16.8H179.3z M174.5,29.9h3.1l-1.5-5.2H176L174.5,29.9z"/>
	<path d="M197.8,23.4h-3.9v12.7h-5.1V23.4h-3.9v-4.1h13V23.4z"/>
	<path d="M205.6,36.1h-5.1V19.3h5.1V36.1z"/>
	<path d="M221.1,35.7c-0.8,0.4-2.3,0.7-4.3,0.7c-5,0-8.6-3.4-8.6-8.7c0-5.3,3.5-8.7,8.6-8.7c2,0,3.3,0.3,4.1,0.7l-0.2,4.4
		c-0.7-0.4-1.8-0.7-2.9-0.7c-2.3,0-4.3,1.3-4.3,4.3c0,3,1.9,4.3,4.3,4.3c1.1,0,2.3-0.3,3-0.7L221.1,35.7z"/>
</g>
</svg>
