<svg width="40" height="36" viewBox="0 0 40 36" fill="none" xmlns="http://www.w3.org/2000/svg">

<path d="M12.5213 21.1831L14.2951 8.14012H7.61712L9.28662 21.1831H12.5213Z" fill="black"/>
<path d="M21.4949 23.7917L23.1644 4.17505H16.5907L18.2602 23.7917H21.4949Z" fill="black"/>
<path d="M32.138 8.14012H25.46L27.1295 21.1831H30.3641L32.138 8.14012Z" fill="black"/>
<path d="M25.2513 28.8003H32.138L28.6946 22.957L25.2513 28.8003Z" fill="black"/>
<path d="M22.5383 31.4089V26.5047H17.3211V31.4089H22.5383Z" fill="black"/>
<path d="M13.7734 25.7743C13.7734 24.1048 12.5213 23.0613 11.0605 23.0613C9.49531 23.0613 8.34753 24.1048 8.34753 25.7743C8.34753 27.3394 9.59966 28.4872 11.0605 28.4872C12.5213 28.4872 13.7734 27.4438 13.7734 25.7743Z" fill="black"/>
<path fill-rule="evenodd" clip-rule="evenodd" d="M39.7551 17.9485C39.7551 29.635 32.451 36 19.9297 36C7.30409 36 0 29.635 0 17.9485C0 6.26193 7.30409 0.00128338 19.9297 0.00128338C32.451 -0.103061 39.7551 6.15759 39.7551 17.9485ZM14.2951 8.14012L12.5213 21.1831H9.28662L7.61712 8.14012H14.2951ZM11.0605 23.0613C12.5213 23.0613 13.7734 24.1048 13.7734 25.7743C13.7734 27.4438 12.5213 28.4872 11.0605 28.4872C9.59966 28.4872 8.34753 27.3394 8.34753 25.7743C8.34753 24.1048 9.49531 23.0613 11.0605 23.0613ZM23.1644 4.17505L21.4949 23.7917H18.2602L16.5907 4.17505H23.1644ZM22.5383 26.5047V31.4089H17.3211V26.5047H22.5383ZM32.138 28.8003H25.2513L28.6946 22.957L32.138 28.8003ZM25.46 8.14012H32.138L30.3641 21.1831H27.1295L25.46 8.14012Z" fill="black"/>

<path d="M32.1379 8.14014H25.4599L27.1294 21.1832H30.3641L32.1379 8.14014Z" fill="white"/>
<path d="M25.2512 28.8003H32.1379L28.6946 22.957L25.2512 28.8003Z" fill="white"/>

<path d="M21.495 23.7917L23.1645 4.17505H16.5908L18.2603 23.7917H21.495Z" fill="white"/>
<path d="M22.5384 31.4089V26.5047H17.3212V31.4089H22.5384Z" fill="white"/>

<path d="M12.5214 21.1832L14.2952 8.14014H7.61719L9.28669 21.1832H12.5214Z" fill="white"/>
<path d="M13.7735 25.7743C13.7735 24.1048 12.5214 23.0613 11.0605 23.0613C9.49538 23.0613 8.3476 24.1048 8.3476 25.7743C8.3476 27.3395 9.59973 28.4872 11.0605 28.4872C12.5214 28.4872 13.7735 27.4438 13.7735 25.7743Z" fill="white"/>

</svg>
